<svg id="Layer_1" data-name="Layer 1" xmlns="http://www.w3.org/2000/svg" xmlns:xlink="http://www.w3.org/1999/xlink" viewBox="0 0 178.78 177.29"><defs><style>.cls-1{fill:#a73e27;}.cls-2{fill:#f86937;}.cls-3{fill:#ff6008;}.cls-4{fill:url(#linear-gradient);}.cls-5{fill:#292498;}.cls-6,.cls-7{fill:#0a0851;}.cls-7{opacity:0.67;}.cls-8{fill:#0fc4ff;}.cls-9{fill:none;stroke:#0a0851;stroke-miterlimit:10;}.cls-10{fill:url(#linear-gradient-2);}.cls-11{fill:url(#linear-gradient-3);}</style><linearGradient id="linear-gradient" x1="76.49" y1="77.88" x2="104.87" y2="77.88" gradientUnits="userSpaceOnUse"><stop offset="0" stop-color="#fff3e9"/><stop offset="1" stop-color="#fcc9b2"/></linearGradient><linearGradient id="linear-gradient-2" x1="86.56" y1="71.41" x2="90.71" y2="71.41" gradientUnits="userSpaceOnUse"><stop offset="0" stop-color="#0700c8"/><stop offset="0.16" stop-color="#0700c0"/><stop offset="0.4" stop-color="#0701aa"/><stop offset="0.7" stop-color="#060286"/><stop offset="1" stop-color="#06035b"/></linearGradient><linearGradient id="linear-gradient-3" x1="91.8" y1="73.57" x2="93.92" y2="73.57" xlink:href="#linear-gradient-2"/></defs><title>L2 illustrations final</title><path class="cls-1" d="M53.81,109.82S51.91,98.6,39.94,99.36C39.94,99.36,41.46,110.83,53.81,109.82Z"/><path class="cls-2" d="M119.28,73.87c1.32-12.76-10.4-23.22-23.23-23.22H88.17A23.23,23.23,0,0,0,65,73.87s-.46,24.95,26.86,48.95C91.81,122.82,116,105.61,119.28,73.87Z"/><path class="cls-3" d="M104.92,108.87V139.2A5.8,5.8,0,0,1,99,144.92h-.59a5.84,5.84,0,0,1-5.82-4.83h0a5.83,5.83,0,0,1-5.81,4.83h-.59a5.81,5.81,0,0,1-5.89-5.72L80.23,109Z"/><polygon class="cls-1" points="80.07 110.99 104.87 137.37 104.92 108.87 80.07 110.99"/><path class="cls-4" d="M91.77,123.39l-13.12-14L78.19,40a2.88,2.88,0,0,0-1.7-2.77h0c0-2.7,1.81-4.89,4.05-4.89l11.39.15c6.33,0,11.46,6.2,11.46,13.84l1.48,63.09Z"/><path class="cls-5" d="M103.39,51.83V44A11.46,11.46,0,0,0,91.93,32.51l-11.39-.13a4,4,0,0,0-4.05,4h0a2.4,2.4,0,0,1,1.7,2.29s.91-2.3,2.87-2.3,12.2-1.16,14.34,5.75a7.56,7.56,0,0,1,.28,2.22v6.4A29.3,29.3,0,0,1,103.39,51.83Z"/><circle class="cls-6" cx="85.43" cy="40.01" r="2.03"/><path class="cls-3" d="M76.49,36.43s-7.2-.13-6.35,7.24a.3.3,0,0,0,.49.19c1.26-1.19,5.15-4.35,7.43-.78C78.06,43.08,79.49,36.82,76.49,36.43Z"/><path class="cls-1" d="M125.12,109.37H63.94a7.52,7.52,0,0,0-7,7.35S55,103.56,67,102h62.72s7,1.15,8.13-7.49C137.89,94.52,144,109.82,125.12,109.37Z"/><path class="cls-7" d="M104.61,52.27c-2.14,3.31-10.54,14.18-12.25,16.38C81.84,60.59,78.87,56,78.23,53.62a1.26,1.26,0,0,1,.06-.79c-.36.16-.74.35-1.1.54a2.09,2.09,0,0,0,.08.5c.68,2.6,3.82,7.46,14.88,15.88l.39.3.3-.39c.45-.58,10.48-13.48,12.71-17Z"/><circle class="cls-8" cx="85.49" cy="39.97" r="0.79"/><path class="cls-7" d="M97,76.61a55.35,55.35,0,0,0-.54-5.51,3.31,3.31,0,0,0-3.25-2.71H89.52v0c-1.19.09-2.14,1.53-2.14,3.3s1,3.3,2.25,3.3h0a1.69,1.69,0,0,1,1.54,1.23c.34,1.26,1.06,5.13,1.06,5.13L97.68,81S97,77.21,97,76.61Z"/><path class="cls-9" d="M102.9,48.88s2.7-.33,1.25,2.3-13,17.42-13,17.42c-11-8.41-14.06-13.15-14.7-15.6a1.83,1.83,0,0,1,1.75-2.27h0"/><path class="cls-3" d="M95,76a50.29,50.29,0,0,0-.49-5.08,3.05,3.05,0,0,0-3-2.5H88.15v0c-1.1.08-2,1.41-2,3s.93,3.05,2.08,3.05h0a1.58,1.58,0,0,1,1.41,1.14c.32,1.17,1,4.73,1,4.73l5-.32S95.08,76.53,95,76Z"/><ellipse class="cls-10" cx="88.64" cy="71.41" rx="2.08" ry="2.78"/><polygon class="cls-11" points="93.9 74.09 91.8 74.28 91.81 72.86 93.92 72.94 93.9 74.09"/></svg>