<svg xmlns="http://www.w3.org/2000/svg" viewBox="0 0 178.78 177.29"><defs><style>.cls-1{isolation:isolate;}.cls-2{fill:#fb8959;}.cls-10,.cls-3,.cls-4,.cls-5{fill:#a73e27;}.cls-4{opacity:0.23;}.cls-5{opacity:0.46;}.cls-10,.cls-6,.cls-8{mix-blend-mode:multiply;}.cls-7,.cls-8{fill:#0a0851;}.cls-9{fill:#ff6008;}.cls-11{fill:#5c64f7;}</style></defs><title>L2 illustrations final</title><g class="cls-1"><g id="Layer_1" data-name="Layer 1"><path class="cls-2" d="M95.78,31.2h18.53a13.15,13.15,0,0,1,13.15,13.15v74.85a0,0,0,0,1,0,0h-16a15.65,15.65,0,0,1-15.65-15.65V31.2A0,0,0,0,1,95.78,31.2Z"/><ellipse class="cls-3" cx="110.35" cy="55.03" rx="5.38" ry="10.75"/><path class="cls-4" d="M121.12,72s-4.83,7.81-.92,19.54S121.58,115,121.58,115s4.36-13.56,1.15-23.67A45,45,0,0,1,121.12,72Z"/><path class="cls-4" d="M118.36,65.37s-4.6,14-.92,25.06C117.44,90.43,110.31,78,118.36,65.37Z"/><path class="cls-4" d="M100.66,91.35s-3.22,20.46,8.5,23.21C109.16,114.56,96.75,117.09,100.66,91.35Z"/><path class="cls-5" d="M108,71.92c-.16-2.83-.49-5.82-2.19-8.1-.67-.91-1.52-1.66-2.24-2.52a11.63,11.63,0,0,1-2.47-5.07c1.27-.82,2.46-2,4-2.25-.22-.24.1-.7-.22-.76a19.19,19.19,0,0,0-4.47.19c-.2-1-.36-2.08-.52-3.1a8.11,8.11,0,0,0-1-3.36,2.84,2.84,0,0,0-3-1.31L96,107.13l.9.14c1.3-.85,1.35-2.68,1.75-4.18a7.56,7.56,0,0,1,5.25-5.27,3.78,3.78,0,0,0,1.89-.8,2.89,2.89,0,0,0,.62-1.54A95,95,0,0,0,108,71.92Z"/><g class="cls-6"><path class="cls-7" d="M98.79,85.13H96.92a.47.47,0,0,1-.46-.46.46.46,0,0,1,.46-.46h1c0-1.28.12-3.85.83-4.56.56-.57,1-.2,1,.2a.46.46,0,0,1-.46.46,12.09,12.09,0,0,0-.49,4.35Z"/></g><g class="cls-6"><path class="cls-7" d="M99.43,87.18a.49.49,0,0,1-.32-.12c-.14-.14-1.36-1.35-1.24-2.44a.47.47,0,0,1,.51-.41.46.46,0,0,1,.4.51c0,.51.63,1.34,1,1.67a.46.46,0,0,1,0,.65A.43.43,0,0,1,99.43,87.18Z"/></g><g class="cls-6"><path class="cls-7" d="M94.26,93.5a.46.46,0,0,1,0-.92l1.64,0c0-1.23,0-3.65.66-4.35s1.06-.22,1.06.19a.47.47,0,0,1-.46.46A11.3,11.3,0,0,0,96.83,93l0,.47-2.58.06Z"/></g><path class="cls-8" d="M97.47,95.51a.43.43,0,0,1-.31-.13c-.14-.13-1.37-1.34-1.25-2.44a.47.47,0,0,1,.51-.4.45.45,0,0,1,.41.5c-.06.52.62,1.35,1,1.68a.46.46,0,0,1,0,.65A.49.49,0,0,1,97.47,95.51Z"/><path class="cls-3" d="M91.47,82.42l5.59.73v2.91L91,86.88A26,26,0,0,0,91.47,82.42Z"/><path class="cls-3" d="M87.48,92l6.59-.84.15,3.29S87,99.32,84.87,98.7C84.87,98.7,87.56,93.57,87.48,92Z"/><path class="cls-3" d="M70.93,108.36s34.48,23.44,28.35,29.73c0,0-8,8.12-30.8-28.81Z"/><path class="cls-9" d="M66,110.66S82.27,151,94.53,145.6s-26-36.32-26-36.32Z"/><path class="cls-10" d="M66,110.66s3.06,2.57,9.4.92l-4.5-3.22Z"/><path class="cls-9" d="M63.73,111.27,60.9,38.76s22.2-4.49,24.56,7.56c0,0,1.82,7.69-4.84,9.21a2.24,2.24,0,0,0-1.77,2.18h0a2.21,2.21,0,0,0,1.46,2.09c2.69,1,7.86,3.83,10,8.24C93,73.66,97.27,101.59,63.73,111.27Z"/><path class="cls-2" d="M78.86,57.89c0-.06,0-.12,0-.18h0a2.24,2.24,0,0,1,1.77-2.18c6.66-1.52,4.84-9.21,4.84-9.21-2.36-12-24.56-7.56-24.56-7.56L62.31,75C66.26,55,76.59,57.16,78.86,57.89Z"/><path class="cls-3" d="M77,62.89s13.55,15.43-13.42,43.63l-.3-13.79Z"/><path class="cls-11" d="M85.46,46.32s-1-12.18-24.56-7.56A11.48,11.48,0,0,1,51.31,34s2.3,9.35,13,8.89S82.37,39.76,85.46,46.32Z"/><circle class="cls-8" cx="77.67" cy="48.29" r="1.23"/><path class="cls-8" d="M85.64,49.05s16.55.31,18.85,2.61c0,0-9.81-1.23-14.1.61s-6.13.61-6.13.61A5.73,5.73,0,0,0,85.64,49.05Z"/><path class="cls-11" d="M53.61,111.1S50.52,76.73,61,63.69a10.73,10.73,0,0,1,16-.8C82.32,68.48,83.77,81.49,53.61,111.1Z"/></g></g></svg>