<svg id="Layer_1" data-name="Layer 1" xmlns="http://www.w3.org/2000/svg" xmlns:xlink="http://www.w3.org/1999/xlink" viewBox="0 0 178.78 177.29"><defs><style>.cls-1{fill:#f5a278;opacity:0.55;}.cls-2{fill:#3d60f2;}.cls-3,.cls-4{fill:#06035b;}.cls-3{opacity:0.76;}.cls-4{opacity:0.51;}.cls-5{fill:#fb8959;}.cls-6{fill:#ef5f32;}.cls-7{fill:url(#linear-gradient);}.cls-8{fill:url(#linear-gradient-2);}.cls-9{fill:#b5bafe;}.cls-10{fill:#f86937;}.cls-11{fill:#ff6008;}.cls-12{fill:#0a0851;}.cls-13{fill:url(#linear-gradient-3);}.cls-14{fill:url(#linear-gradient-4);}.cls-15{fill:url(#linear-gradient-5);}.cls-16{fill:url(#linear-gradient-6);}.cls-17{fill:url(#linear-gradient-7);}.cls-18{fill:#fff;}</style><linearGradient id="linear-gradient" x1="194.04" y1="92.11" x2="208.75" y2="100.41" gradientTransform="matrix(-1, 0, 0, 1, 274.59, 0)" gradientUnits="userSpaceOnUse"><stop offset="0" stop-color="#fff3e9"/><stop offset="1" stop-color="#fcc9b2"/></linearGradient><linearGradient id="linear-gradient-2" x1="29.37" y1="116.7" x2="84.13" y2="116.7" gradientTransform="matrix(1, 0, 0, 1, 0, 0)" xlink:href="#linear-gradient"/><linearGradient id="linear-gradient-3" x1="209.41" y1="115.87" x2="199.49" y2="115.87" gradientTransform="matrix(-1, 0, 0, 1, 274.59, 0)" gradientUnits="userSpaceOnUse"><stop offset="0" stop-color="#fcc9b2" stop-opacity="0"/><stop offset="1" stop-color="#fcc9b2"/></linearGradient><linearGradient id="linear-gradient-4" x1="214.36" y1="110.58" x2="202.79" y2="111.69" xlink:href="#linear-gradient-3"/><linearGradient id="linear-gradient-5" x1="223.6" y1="113.85" x2="202.8" y2="113.85" xlink:href="#linear-gradient-3"/><linearGradient id="linear-gradient-6" x1="215.23" y1="119.66" x2="203.65" y2="120.76" xlink:href="#linear-gradient-3"/><linearGradient id="linear-gradient-7" x1="221.54" y1="122.5" x2="205.28" y2="122.5" xlink:href="#linear-gradient-3"/></defs><title>L2 illustrations final</title><ellipse class="cls-1" cx="82.51" cy="152.9" rx="33.75" ry="5.5"/><rect class="cls-2" x="73.61" y="133.48" width="15.01" height="20.31"/><polygon class="cls-3" points="88.62 139.66 73.61 144.96 73.61 133.48 88.62 133.48 88.62 139.66"/><polygon class="cls-2" points="113.78 133.92 47.56 133.92 42.26 67.7 119.08 67.7 113.78 133.92"/><polygon class="cls-2" points="129.23 68.14 31.22 68.14 80.34 23.11 129.23 68.14"/><circle class="cls-3" cx="94.46" cy="97.06" r="12.9"/><polygon class="cls-3" points="42.91 78.03 119.52 68.14 42.7 68.14 42.91 78.03"/><path class="cls-4" d="M63.11,134h11a28.52,28.52,0,0,0,10-21.8c0-.62,0-1.16,0-1.77a14.4,14.4,0,0,0-2-7.41,13.57,13.57,0,0,0-11.63-6.71,13.91,13.91,0,0,0-13.69,14.12c0,.31,0,.61,0,.91l-7-.75m11.59,4.53a30,30,0,0,0,4.29-1.32c-1.42,2.59-.84,4.15-.84,4.15Z"/><path class="cls-5" d="M38.71,126.32,26.28,148.26s14.13,2.65,23-15.9Z"/><path class="cls-6" d="M48.65,134s-9.7.28-12.49-3.11L38.25,127Z"/><path class="cls-7" d="M72.34,102.44c-.84,6.21-12.6,8-12.6,8l-3-4.1c0-.3,0-.6,0-.91A13.91,13.91,0,0,1,70.43,91.31,13.57,13.57,0,0,1,82.06,98C78.89,97.77,73,97.92,72.34,102.44Z"/><path class="cls-8" d="M29.61,103.45l27.16,2.89,8,6.61s-.75-2,1.5-5.21c1.05-1.52,5.75-3.31,6-5.3.61-4.52,6.55-4.67,9.72-4.42a14.4,14.4,0,0,1,2,7.41c0,.61,0,1.15,0,1.77,0,15.6-12.25,28.26-27.37,28.26S29.37,122.8,29.37,107.2A28.93,28.93,0,0,1,29.61,103.45Z"/><path class="cls-9" d="M84.11,105.43s5.3-3.53,5.3-4.41-6.18,0-6.18,0Z"/><path class="cls-10" d="M29.48,103.09c-.07.77-.11,1.55-.11,2.34,0,12.68,9.88,23,22.07,23,11.22,0,20.49-8.7,21.89-20Z"/><path class="cls-11" d="M80.19,95.33s-11.75,0-14.51,12.09l2.7.33s10.59-8.57,15.72.7C84.1,108.45,85.11,100.25,80.19,95.33Z"/><circle class="cls-12" cx="76.61" cy="99.69" r="1.77"/><path class="cls-13" d="M63.56,114.36c0,.09,0,.19,0,.28a2.64,2.64,0,0,0,5.26.36Z"/><path class="cls-14" d="M62.07,109.37a2.53,2.53,0,0,0,0,.28,2.64,2.64,0,0,0,5.26.35Z"/><path class="cls-15" d="M55.87,112.34a2.53,2.53,0,0,0,0,.28,2.69,2.69,0,0,0,2.64,2.74A2.66,2.66,0,0,0,61.11,113Z"/><path class="cls-16" d="M58.24,118.15a2.83,2.83,0,0,0,0,.29,2.64,2.64,0,0,0,5.26.35Z"/><path class="cls-17" d="M52.65,121a2.62,2.62,0,0,0,0,.28,2.64,2.64,0,0,0,5.26.36Z"/><path class="cls-18" d="M55.92,133.27c23.6-1.19,28.15-25.55,28.15-24.93,0,15.61-12.21,27.12-27.33,27.12a27.48,27.48,0,0,1-25.91-19.14C35.06,126.3,44.71,133.84,55.92,133.27Z"/></svg>