<svg id="Layer_1" data-name="Layer 1" xmlns="http://www.w3.org/2000/svg" xmlns:xlink="http://www.w3.org/1999/xlink" viewBox="0 0 178.78 177.29"><defs><style>.cls-1{fill:#f5a278;opacity:0.55;}.cls-2{fill:url(#linear-gradient);}.cls-3{fill:#0a0851;}.cls-4{fill:none;stroke:#0a0851;stroke-miterlimit:10;opacity:0.08;}.cls-5{fill:#a73e27;}.cls-6{fill:#fb8959;}.cls-7{fill:#f86937;}.cls-8{fill:url(#linear-gradient-2);}.cls-9{fill:url(#linear-gradient-3);}.cls-10{fill:#6a90e5;}.cls-11{fill:#5c64f7;}</style><linearGradient id="linear-gradient" x1="57.86" y1="140.39" x2="91.9" y2="43.62" gradientUnits="userSpaceOnUse"><stop offset="0.07" stop-color="#f2f6fc"/><stop offset="0.26" stop-color="#d7e4f8"/><stop offset="0.59" stop-color="#adc8f3"/><stop offset="0.84" stop-color="#94b7ef"/><stop offset="1" stop-color="#8ab1ee"/></linearGradient><linearGradient id="linear-gradient-2" x1="145.32" y1="78.03" x2="156.98" y2="78.03" xlink:href="#linear-gradient"/><linearGradient id="linear-gradient-3" x1="130.46" y1="91.82" x2="154.48" y2="91.82" gradientUnits="userSpaceOnUse"><stop offset="0" stop-color="#fff3e9"/><stop offset="1" stop-color="#fcc9b2"/></linearGradient></defs><title>L2 illustrations final</title><ellipse class="cls-1" cx="72.58" cy="135.45" rx="40.54" ry="6.59"/><path class="cls-2" d="M68.59,39.88h7.35A31.14,31.14,0,0,1,107.08,71v62.19a0,0,0,0,1,0,0H37.45a0,0,0,0,1,0,0V71A31.14,31.14,0,0,1,68.59,39.88Z"/><ellipse class="cls-3" cx="72.28" cy="133.28" rx="35.08" ry="3.69"/><ellipse class="cls-4" cx="72.28" cy="70.84" rx="34.58" ry="3.69"/><ellipse class="cls-4" cx="72.28" cy="94.17" rx="34.58" ry="3.69"/><path class="cls-1" d="M156.44,148.91l-1.66-1a1.24,1.24,0,0,0,0-.47,2,2,0,0,0-1.11-1.14,9.34,9.34,0,0,0-2.79-.83,18.19,18.19,0,0,0-3-.16c2.71-2.42,5.42-5.36,0-7.44-4.06,1.91-9,3.64-11.57,5.88L134,145.34l-.92.62-21.21-6.13s-5.86,7.56,11.75,10.7c-1.72.48-3,.86-3.71,1.06l-13,3.72a17.35,17.35,0,0,0,4.74-.28s-2,.8-1.42,1.57l12.6-3.85c17.15,4.45,27-.88,29.91-2.56a7.4,7.4,0,0,0,1.22-.87Z"/><path class="cls-5" d="M134.23,75.89l10-24s15.48,25.35-7.75,36.81Z"/><path class="cls-6" d="M139.75,79l-28.83-17.2s-3.78,21.94,16.57,27.71Z"/><path class="cls-7" d="M138.44,78.5S127.6,86.3,118.55,85c0,0,4.72,3.73,8.94,4.52Z"/><path class="cls-6" d="M122.21,92.84s22.41-22.66,29.87-20.43c5.34,1.61,6,7.19,3.42,12.34S143.65,107.08,122.21,92.84Z"/><path class="cls-6" d="M124.25,90.88l-13.58,13s3.32.21,4.71-1.31c0,0-1.74,2.36-.95,4.36l13.15-13.4Z"/><path class="cls-8" d="M157,79.23s-5.14,6.08-9.74,4c-2.12-1-3.1-5.64.45-6,4.43-.42,4.4-4.83,4.4-4.83A6.62,6.62,0,0,1,157,79.23Z"/><circle class="cls-3" cx="153.21" cy="76.63" r="0.79"/><path class="cls-7" d="M126,95.09a40.7,40.7,0,0,1-3.76-2.25l-1.64,1.55Z"/><path class="cls-5" d="M111.25,72.16s3.87,2.82,8.15,1.91a9.77,9.77,0,0,1-7.86-.78Z"/><path class="cls-5" d="M112.5,76.35s4.28,2.62,8.51.74a9.23,9.23,0,0,1-8,.38Z"/><path class="cls-9" d="M145.71,90c-1.85,4.94-11.49,6.64-15.25,7.12,13.74,4.8,21-4.93,24-10.36C153.5,84.43,147.76,84.46,145.71,90Z"/><path class="cls-5" d="M120,101.25l-5.53,5.64c-.79-2,.95-4.36.95-4.36-1.39,1.52-4.71,1.31-4.71,1.31l5.83-5.57S116.29,101.55,120,101.25Z"/><path class="cls-3" d="M157,78.32s-5.24,6.2-9.83,4.09a3.69,3.69,0,0,1-1.81-2.57,3.91,3.91,0,0,0,1.9,3.37c4.6,2.1,9.74-4,9.74-4A4.63,4.63,0,0,0,157,78.32Z"/><path class="cls-5" d="M155.93,75.39l2.43-.37a.28.28,0,0,1,.27.46l-1.63,2A1.81,1.81,0,0,1,155.93,75.39Z"/><path class="cls-4" d="M51.55,135.08V73.55c0-16.52,9.88-30,22.28-30.77-.37,0-.74,0-1.12,0"/><path class="cls-4" d="M93.83,135.08V73.55c0-16.52-9.87-30-22.28-30.77.37,0,.75,0,1.12,0"/><ellipse class="cls-10" cx="72.26" cy="42.54" rx="6.35" ry="2.75"/><path class="cls-11" d="M72.32,41.31c-3.48,0-6.18-3.9-6.18-7.26a6.13,6.13,0,0,1,12.25,0C78.39,37.41,75.74,41.31,72.32,41.31Zm-.06-11.15a3.89,3.89,0,0,0-3.88,3.89c0,2.21,1.85,5,3.94,5s3.83-2.81,3.83-5A3.89,3.89,0,0,0,72.26,30.16Z"/></svg>