<?xml version="1.0" encoding="utf-8"?>
<!-- Generator: Adobe Illustrator 16.0.4, SVG Export Plug-In . SVG Version: 6.00 Build 0)  -->
<!DOCTYPE svg PUBLIC "-//W3C//DTD SVG 1.1//EN" "http://www.w3.org/Graphics/SVG/1.1/DTD/svg11.dtd">
<svg version="1.1" id="Layer_1" xmlns="http://www.w3.org/2000/svg" xmlns:xlink="http://www.w3.org/1999/xlink" x="0px" y="0px"
	 width="47.002px" height="38.003px" viewBox="0 0 47.002 38.003" enable-background="new 0 0 47.002 38.003" xml:space="preserve">
<path fill-rule="evenodd" clip-rule="evenodd" fill="#565656" d="M46.328,36.365c-1.188,1.725-3.553,2.158-5.273,0.962L25.479,26.52
	c-1.104-0.763-1.674-2.007-1.631-3.257c-2.006,2.157-4.642,3.606-7.594,4.145c-3.626,0.663-7.288-0.13-10.311-2.227
	c-3.024-2.098-5.054-5.253-5.714-8.887c-0.661-3.636,0.127-7.31,2.221-10.344c4.325-6.264,12.927-7.834,19.177-3.5
	c5.672,3.938,7.486,11.412,4.537,17.443c1.152-0.486,2.519-0.392,3.627,0.377l15.58,10.808C47.09,32.274,47.52,34.641,46.328,36.365
	z M23.235,12.09c-0.459-2.534-1.874-4.734-3.982-6.196C14.897,2.87,8.896,3.963,5.878,8.331c-3.014,4.373-1.922,10.388,2.435,13.408
	c4.356,3.025,10.356,1.932,13.374-2.438C23.146,17.187,23.696,14.625,23.235,12.09z"/>
</svg>
