<?xml version="1.0" encoding="utf-8"?>
<!-- Generator: Adobe Illustrator 16.0.0, SVG Export Plug-In . SVG Version: 6.00 Build 0)  -->
<!DOCTYPE svg PUBLIC "-//W3C//DTD SVG 1.1//EN" "http://www.w3.org/Graphics/SVG/1.1/DTD/svg11.dtd">
<svg class="mailpoet_tool_icon"  version="1.1" xmlns="http://www.w3.org/2000/svg" xmlns:xlink="http://www.w3.org/1999/xlink" x="0px" y="0px" width="612px"
	 height="611.632px" viewBox="0 93.684 612 611.632" enable-background="new 0 93.684 612 611.632" xml:space="preserve">
<g id="Layer_1">
	<g id="Layer_1_copy">
		<circle fill="#FFFFFF" cx="306" cy="403.5" r="269.5"/>
		<polygon id="_x3C_Slice_x3E__1_" fill="none" points="0,69.6 612,69.6 614,724.4 2,724.4 		"/>
		<g id="Layer_3">
		</g>
	</g>
	<g id="Layer_2">
		<path d="M171.5,536.834"/>
	</g>
</g>
<g id="Layer_3_1_">
	<g>
		<path d="M360.207,425.951V303.128c0-3.426-2.789-6.212-6.215-6.212H156.618c-3.426,0-6.212,2.786-6.212,6.212v122.823
			c0,3.425,2.787,6.212,6.212,6.212h197.374C357.418,432.163,360.207,429.376,360.207,425.951z"/>
		<path d="M305.816,93.684C136.918,93.684,0,230.602,0,399.5c0,168.896,136.918,305.816,305.816,305.816
			c168.896,0,305.815-136.919,305.815-305.816C611.633,230.602,474.714,93.684,305.816,93.684z M104.845,425.951V303.128
			c0-28.547,23.226-51.772,51.773-51.772h197.374c28.548,0,51.772,23.225,51.772,51.772v122.823
			c0,28.548-23.225,51.772-51.772,51.772H156.618C128.071,477.724,104.845,454.499,104.845,425.951z M499.041,514.872
			c0,28.548-23.225,51.772-51.772,51.772H231.894c-28.547,0-51.772-23.225-51.772-51.772h45.56c0,3.428,2.787,6.213,6.212,6.213
			h215.375c3.426,0,6.212-2.785,6.212-6.213v-140.82c0-3.427-2.786-6.212-6.212-6.212v-45.562c28.548,0,51.772,23.226,51.772,51.773
			V514.872z"/>
	</g>
</g>
</svg>
