<svg class="mailpoet_tool_icon" version="1.1" id="Layer_1" xmlns="http://www.w3.org/2000/svg" xmlns:xlink="http://www.w3.org/1999/xlink" x="0px" y="0px"
	 viewBox="91 91 613 613" enable-background="new 91 91 613 613" xml:space="preserve">
<circle class="mailpoet_tool_icon_foreground" fill="#AA3333" cx="398.002" cy="397.5" r="270.827"/>
<g>
	<path d="M397.5,91.5c-169,0-306,137-306,306c0,168.999,137,306,306,306c168.999,0,306-137.001,306-306
		C703.5,228.5,566.499,91.5,397.5,91.5z M594.078,438.486c-24.244,24.336-35.449,34.99-38.754,36.734
		c-3.949,2.111-5.695,2.479-12.398,2.479s-8.449-0.368-12.582-2.479c-6.244-3.307-11.02-8.266-13.959-14.51
		c-1.928-4.133-2.387-6.338-2.387-12.398c0-9.275,1.928-13.133,10.836-22.315l6.521-6.612h-52.991h-52.988v52.988v52.99l6.703-6.521
		c9.092-8.908,12.949-10.836,22.225-10.836c6.061,0,8.266,0.459,12.398,2.387c6.244,2.939,11.203,7.715,14.51,13.959
		c2.111,4.133,2.479,5.879,2.479,12.582c0,6.704-0.367,8.449-2.479,12.398c-1.745,3.305-12.398,14.51-36.734,38.754
		c-33.704,33.521-34.346,34.163-39.674,35.633c-7.254,2.111-15.152,1.469-21.213-1.653c-6.061-3.123-69.979-67.04-73.101-73.192
		c-1.836-3.398-2.204-5.511-2.204-11.939c0-6.703,0.367-8.449,2.479-12.582c3.306-6.244,8.265-11.02,14.51-13.959
		c4.133-1.928,6.337-2.387,12.398-2.387c9.275,0,13.132,1.928,22.316,10.836l6.612,6.521v-52.99v-52.988h-52.989h-52.989
		l6.521,6.612c8.908,9.183,10.836,13.04,10.836,22.315c0,6.061-0.459,8.266-2.388,12.398c-2.938,6.244-7.714,11.203-13.959,14.51
		c-4.132,2.111-5.878,2.479-12.582,2.479s-8.449-0.368-12.398-2.479c-3.306-1.744-14.51-12.398-38.754-36.734
		c-33.52-33.704-34.163-34.346-35.632-39.674c-2.021-6.887-1.469-15.152,1.378-20.754c2.847-5.878,66.764-69.979,73.009-73.285
		c3.949-2.112,5.694-2.479,12.398-2.388c9,0,14.326,2.204,20.571,8.358c5.786,5.693,8.357,12.213,8.357,20.938
		c0,9.275-1.929,13.133-10.836,22.225l-6.521,6.703h52.989h52.989v-52.988v-52.989l-6.612,6.521
		c-9.184,8.908-13.041,10.836-22.316,10.836c-8.724,0-15.245-2.571-20.938-8.357c-6.153-6.245-8.357-11.572-8.357-20.571
		c-0.092-6.428,0.275-8.541,2.02-11.938c2.847-5.326,67.04-70.07,72.275-72.734c2.02-1.102,4.683-2.204,5.969-2.663
		c3.949-1.194,11.387-0.918,16.621,0.643c4.685,1.377,6.613,3.122,39.215,35.54c24.428,24.245,34.989,35.448,36.734,38.754
		c2.111,3.949,2.479,5.694,2.479,12.398s-0.367,8.449-2.479,12.398c-3.215,6.245-8.449,11.204-14.51,14.143
		c-4.133,1.929-6.338,2.388-12.398,2.388c-9.275,0-13.133-1.929-22.225-10.836l-6.703-6.521v52.989v52.988h52.988h52.991
		l-6.521-6.703c-8.908-9.092-10.836-12.949-10.836-22.225c0-6.061,0.459-8.266,2.387-12.397c2.939-6.245,7.715-11.204,13.959-14.51
		c4.133-2.112,5.879-2.479,12.582-2.479c6.428,0,8.541,0.367,11.938,2.204c6.154,3.123,70.07,67.041,73.193,73.101
		s3.766,13.959,1.654,21.213C628.24,404.141,627.598,404.782,594.078,438.486z"/>
</g>
</svg>
