<svg class="mailpoet_tool_icon" version="1.1" id="Layer_1" xmlns="http://www.w3.org/2000/svg" xmlns:xlink="http://www.w3.org/1999/xlink" x="0px" y="0px"
	 width="611.631px" height="611.632px" viewBox="0 93 611.631 611.632" enable-background="new 0 0 611.631 611.632"
	 xml:space="preserve">
<circle class="mailpoet_tool_icon_foreground" fill="#AA3333" cx="306" cy="403.5" r="269.5"/>
<rect id="_x3C_Slice_x3E_" y="69.6" fill="none" width="612" height="652.8"/>
<g>
	<path d="M313.921,332.213h-16.211c-4.546,0-8.117,3.477-8.117,7.929v174.159c0,4.477,3.546,7.926,8.117,7.926h16.235
		c4.547,0,8.115-3.475,8.115-7.926V340.142h-0.021C322.038,335.69,318.491,332.213,313.921,332.213z"/>
	<path d="M249.051,332.213h-16.235c-4.546,0-8.093,3.477-8.093,7.929v174.159c0,4.477,3.547,7.926,8.093,7.926h16.235
		c4.547,0,8.117-3.475,8.117-7.926V340.142C257.168,335.69,253.622,332.213,249.051,332.213z"/>
	<path d="M305.816,93.684C136.918,93.684,0,230.602,0,399.5c0,168.896,136.918,305.816,305.816,305.816
		c168.896,0,305.815-136.918,305.815-305.816C611.633,230.602,474.714,93.684,305.816,93.684z M484.251,292.65
		c0,4.45-3.547,7.903-8.094,7.903h-24.33v234.556c0,27.21-18.258,50.49-40.564,50.49H200.369c-22.307,0-40.564-22.281-40.564-49.491
		V300.553h-24.306c-4.57,0-8.118-3.453-8.118-7.903v-15.855c0-4.451,3.548-7.928,8.118-7.928h78.32l17.734-41.302
		c5.095-12.117,20.306-22.02,33.733-22.02h81.105c13.428,0,28.637,9.902,33.707,22.02l17.736,41.302h78.322
		c4.545,0,8.092,3.477,8.092,7.928L484.251,292.65L484.251,292.65z"/>
	<path d="M350.415,239.943c-0.76-1-3.023-2.476-4.309-2.737h-80.344c-1.5,0.261-3.546,1.737-4.309,2.737l-12.403,28.924h113.529
		L350.415,239.943z"/>
	<path d="M378.815,332.213h-16.236c-4.547,0-8.094,3.477-8.094,7.929v174.159c0,4.477,3.547,7.926,8.094,7.926h16.236
		c4.547,0,8.119-3.475,8.119-7.926V340.142C386.935,335.69,383.388,332.213,378.815,332.213z"/>
</g>
</svg>
