<svg xmlns="http://www.w3.org/2000/svg" xmlns:xlink="http://www.w3.org/1999/xlink" width="178.779" height="177.293"><defs><path id="a" d="M0 0h178.779v177.293H0z"/></defs><clipPath id="b"><use xlink:href="#a" overflow="visible"/></clipPath><g clip-path="url(#b)"><defs><path id="c" d="M0 0h178.779v177.293H0z"/></defs><clipPath id="d"><use xlink:href="#c" overflow="visible"/></clipPath><g opacity=".71" clip-path="url(#d)"><defs><path id="e" d="M70.217 138.91h74.486v11.436H70.217z"/></defs><clipPath id="f"><use xlink:href="#e" overflow="visible"/></clipPath><path clip-path="url(#f)" fill="#06035B" d="M144.703 144.628c0 3.158-16.675 5.719-37.243 5.719-20.569 0-37.242-2.561-37.242-5.719s16.673-5.718 37.242-5.718c20.568 0 37.243 2.56 37.243 5.718"/></g><path clip-path="url(#d)" fill="#F86937" d="M60.407 86.2S47.99 68.053 31.208 88.123c-.418.499.078 1.244.699 1.045 2.223-.712 5.544-1.6 6.628-.948 0 0-14.968 3.585-15.035 21.415-.002.644.838.899 1.198.366 2.265-3.356 7.605-10.402 13.164-11.519 0 0-17.405 10.798-7.578 31.288.249.52.994.506 1.203-.03 1.78-4.556 7.833-18.863 13.923-19.648 0 0-5.706 5.123-1.896 15.512.216.59 1.065.562 1.244-.038 1.209-4.041 4.604-13.148 10.265-11.437l3.533-12.955.505-5.888 1.178-6.394.168-2.692z"/><path clip-path="url(#d)" fill="none" stroke="#FB8959" stroke-width="2" stroke-linecap="round" stroke-miterlimit="10" d="M99.053 144.194l4.883-.075 1.758-8.445"/><path clip-path="url(#d)" fill="none" stroke="#DD6C45" stroke-width="2" stroke-linecap="round" stroke-miterlimit="10" d="M110.513 143.19l4.046.59 1.854-10.752M114.403 144.128s4.976-.432 8.477 1.094"/><path clip-path="url(#d)" fill="#0A0851" d="M116.393 31.335l1.701 10.233-1.7 1.497-6.471-8.591a1.425 1.425 0 0 1 .345-2.035 20.913 20.913 0 0 1 4.219-2.2 1.424 1.424 0 0 1 1.906 1.096M106.333 35.902c.53-.6 1.475-.578 1.977.045l6.982 8.664-.343.646-.271.507-.533.992-10.298-4.375a1.298 1.298 0 0 1-.652-1.765 20.896 20.896 0 0 1 3.138-4.714M113.591 52.949l.179 1.368-7.298 6.823a1.369 1.369 0 0 1-2.085-.257 20.8 20.8 0 0 1-1.645-3.13 1.372 1.372 0 0 1 .797-1.828l9.972-3.56.08.584zM113.557 48.702l-.25 2.74-10.992 1.502a.843.843 0 0 1-.96-.812c-.04-1.558-.048-4.697.268-6.805a.848.848 0 0 1 1.135-.675l10.799 4.05z"/><path clip-path="url(#d)" fill="#FB8959" d="M122.428 124.501c-.691 3.317-2.477 7.324-3.684 8.656-1.183 1.316-3.327 1.166-4.26-.337-1.02-1.632-2.357-3.518-2.397-4.159.002-.011 1.028-.18 1.028-.18 2.779-.533 6.176-2.948 9.313-3.98"/><path clip-path="url(#d)" fill="#FF9D7B" d="M98.7 125.162s.764 2.224 1.674 4.67c.689 1.84 2.252 3.65 3.875 5.275a2.156 2.156 0 0 0 2.892.144c1.396-1.16 3.487-3.257 4.829-6.268.382-.85 1.049-2.632 1.277-3.636l-14.547-.185z"/><path clip-path="url(#d)" fill="#F86937" d="M133.395 56.443s-.372 4.832 4.83 9.849c5.203 5.016 7.805 14.679 2.23 29.172-5.575 14.495-11.335 22.298-11.335 22.298l-10.034-49.426-3.344-10.778 17.653-1.115z"/></g><g clip-path="url(#b)"><defs><path id="g" d="M49.504 81.27c-1.561.33-3.191 1.14-4.88 2.58-.391.331-.76.68-1.09 1.05-2.911 3.12-3.76 7.23-3.02 11.431.52 2.999 1.839 6.039 3.789 8.819a26.999 26.999 0 0 0 5.7 5.95c5.23 3.999 12.101 6.22 19.49 4.619-5.879-8.689-8.119-17.62-8.119-17.62a80.413 80.413 0 0 0 5.869-.589v-.031s-2.619-6.438-6.89-11.24c-2.531-2.867-5.659-5.146-9.165-5.146a8.226 8.226 0 0 0-1.684.177"/></defs><clipPath id="h"><use xlink:href="#g" overflow="visible"/></clipPath><linearGradient id="i" gradientUnits="userSpaceOnUse" x1="0" y1="177.273" x2="1" y2="177.273" gradientTransform="matrix(29.2327 0 0 -29.2327 40.266 5281.414)"><stop offset="0" stop-color="#fff3e9"/><stop offset=".997" stop-color="#fcc9b2"/><stop offset="1" stop-color="#fcc9b2"/></linearGradient><path clip-path="url(#h)" fill="url(#i)" d="M39.774 81.094h29.719v36.227H39.774z"/></g><g clip-path="url(#b)"><defs><path id="j" d="M0 0h178.779v177.293H0z"/></defs><clipPath id="k"><use xlink:href="#j" overflow="visible"/></clipPath><path clip-path="url(#k)" fill="#F86937" d="M113.804 128.2v.011c-.47.199-.94.38-1.4.559.2-.909.32-1.889.341-2.92l-13.12 1.63s.28 1.938 1.671 4.148c-15.821 2.059-25.631-6.797-31.801-15.907-5.88-8.69-8.12-17.621-8.12-17.621 2.03-.129 3.99-.33 5.87-.589 1.9-.26 3.73-.59 5.49-.97l.01.059s7.882 1.207 9.345 8.829c1.778 9.264 23.229 16.376 29.874 3.897 9.146-17.177 4.461-36.346-.909-43.405 2.97-6.83 3.59-12.021 3.59-12.021l-.01-1.38c.31 6.08 5.34 10.91 11.49 10.91.38 0 .76-.02 1.14-.06.2.23 2.33 2.79 3.1 6.101.48 2.04 1.74 3.87 3.61 4.809.93.471 2.021.771 3.26.67l.011.15c-2.41 2.5-1.37 11.25-.591 16.05.971 5.891.48 11.989-1.85 17.489-4.35 10.23-12.8 15.46-12.8 15.46-2.861 1.652-5.591 3.011-8.201 4.101"/><g opacity=".2" clip-path="url(#k)"><defs><path id="l" d="M70.382 66.731h48.532v53.867H70.382z"/></defs><clipPath id="m"><use xlink:href="#l" overflow="visible"/></clipPath><path clip-path="url(#m)" fill="#0A0851" d="M111.172 66.73c5.316 7.756 13.717 30.201 1.273 46.655-11.83 15.623-30.462 2.112-32.966-5.456-2.584-7.812-9.09-10.817-9.09-10.817l-.008-.065c24.753-4.108 35.273-19.169 40.791-30.317"/></g><path clip-path="url(#k)" fill="#5C64F7" d="M111.054 65.921c5.37 7.06 13.03 27.979 2.07 44.06-10.42 15.271-28.954 4.541-31.743-2.812-2.752-7.257-8.637-10.568-8.637-10.568l-.01-.06c23.129-5.02 33.64-19.86 38.32-30.62"/></g><g clip-path="url(#b)"><defs><path id="n" d="M101.309 131.686l-1.209-2.941c-16.471 3.654-26.608-7.605-29.642-11.643 13.483 18.639 30.851 14.584 30.851 14.584m-30.851-14.584a45.746 45.746 0 0 1-.965-1.382s.324.53.965 1.382"/></defs><clipPath id="o"><use xlink:href="#n" overflow="visible"/></clipPath><linearGradient id="p" gradientUnits="userSpaceOnUse" x1="0" y1="177.236" x2="1" y2="177.236" gradientTransform="matrix(31.8145 0 0 -31.8145 69.5 5764.37)"><stop offset="0" stop-color="#fff3e9"/><stop offset=".997" stop-color="#fcc9b2"/><stop offset="1" stop-color="#fcc9b2"/></linearGradient><path clip-path="url(#o)" fill="url(#p)" d="M69.493 115.72h31.815v20.021H69.493z"/></g><g clip-path="url(#b)"><defs><path id="q" d="M0 0h178.779v177.293H0z"/></defs><clipPath id="r"><use xlink:href="#q" overflow="visible"/></clipPath><path clip-path="url(#r)" fill="#FB8959" d="M141.321 41.351l-6.311 4.104a10.463 10.463 0 0 0-1.052-1.594l.154-.14.464-1.891.198.047 6.547-.526z"/><path clip-path="url(#r)" fill="#FB8959" d="M134.957 34.268l1.792.146-1.688 1.75-.482 5.667-.464 1.891-.155.14c-1.062-1.362-3.545-2.801-5.098-3.558l.096-.203 5.999-5.833z"/><path clip-path="url(#r)" fill="#E85628" d="M127.444 62.186c-.372.086-.747.152-1.124.198-6.104.746-11.684-3.438-12.729-9.435l-.081-.584a11.39 11.39 0 0 1 1.167-6.601l.271-.507a11.476 11.476 0 0 1 8.581-5.703c2.293-.28 4.51.134 6.44 1.087a11.38 11.38 0 0 1 3.989 3.22c.394.496.75 1.026 1.052 1.594a11.345 11.345 0 0 1 1.33 4.119 11.551 11.551 0 0 1-.401 4.714c-1.176 3.891-4.366 6.981-8.495 7.898"/><path clip-path="url(#r)" fill="#0A0851" d="M145.516 59.938c1.155 1.873 1.635 4.888-1.734 9.057-1.751 2.158-3.473 3.155-5.036 3.476-1.218.25-2.336.084-3.316-.269-1.971-.706-3.443-2.369-4.167-4.336-1.166-3.193-3.591-5.476-3.817-5.68 4.13-.917 7.317-4.007 8.495-7.898.985 1.058 4.249 2.291 6.005 2.892 1.461.508 2.763 1.436 3.57 2.758M126.262 46.376a2.076 2.076 0 1 1-4.12.502 2.076 2.076 0 0 1 4.12-.502"/></g><g clip-path="url(#b)"><defs><path id="s" d="M134.509 106.428c-5.625 10.688-21.765 19.423-21.765 19.423l-.698 2.935s11.871.127 24.506-20.686c12.637-20.812 5.019-36.977 5.019-36.977 2.229 8.175-1.488 24.714-7.062 35.305"/></defs><clipPath id="t"><use xlink:href="#s" overflow="visible"/></clipPath><linearGradient id="u" gradientUnits="userSpaceOnUse" x1="0" y1="177.291" x2="1" y2="177.291" gradientTransform="matrix(31.8004 0 0 -31.8004 112.047 5737.93)"><stop offset="0" stop-color="#fff3e9"/><stop offset=".997" stop-color="#fcc9b2"/><stop offset="1" stop-color="#fcc9b2"/></linearGradient><path clip-path="url(#t)" fill="url(#u)" d="M112.046 71.123h37.142v57.789h-37.142z"/></g><g clip-path="url(#b)"><defs><path id="v" d="M0 0h178.779v177.293H0z"/></defs><clipPath id="w"><use xlink:href="#v" overflow="visible"/></clipPath><g opacity=".34" clip-path="url(#w)"><defs><path id="x" d="M128.06 45.522h6.582v11.245h-6.582z"/></defs><clipPath id="y"><use xlink:href="#x" overflow="visible"/></clipPath><path clip-path="url(#y)" fill="#F86937" d="M132.239 47.907a5.625 5.625 0 0 1-4.18 8.777 5.6 5.6 0 0 0 4.13-.895 5.622 5.622 0 1 0-3.638-10.248 5.606 5.606 0 0 1 3.688 2.366"/></g><path clip-path="url(#w)" fill="#5C64F7" d="M140.455 33.589a1.115 1.115 0 1 1-2.23-.001 1.115 1.115 0 0 1 2.23.001M149.486 29.506a2.878 2.878 0 0 1-2.162 3.451 2.878 2.878 0 0 1-3.451-2.162 2.88 2.88 0 1 1 5.613-1.289M148.166 23.369a.836.836 0 1 1-1.673 0 .836.836 0 0 1 1.673 0"/><path clip-path="url(#w)" fill="none" stroke="#5C64F7" stroke-miterlimit="10" d="M141.198 38.047l9.663-3.157M140.827 30.43l.929-4.831"/><path clip-path="url(#w)" fill="none" stroke="#FB8959" stroke-width="2" stroke-linecap="round" stroke-miterlimit="10" d="M104.011 144.168s6.28-.456 9.179.467"/></g></svg>